<?xml version="1.0" standalone="no"?><!DOCTYPE svg PUBLIC "-//W3C//DTD SVG 1.1//EN" "http://www.w3.org/Graphics/SVG/1.1/DTD/svg11.dtd"><svg t="1699938190634" class="icon" viewBox="0 0 1024 1024" version="1.1" xmlns="http://www.w3.org/2000/svg" p-id="5066" xmlns:xlink="http://www.w3.org/1999/xlink" width="200" height="200"><path d="M156.8 752.9c-18-59.8 47.7-89.5 38.6-170.7-8.1-71.5-60.4-80.5-63.4-141.5-4.7-96.1 121.8-171 136.7-179.8 85.6-50.8 226.6-81.1 299-17 53.8 47.6 23.6 106.3 82.5 151.1 63.7 48.4 127.1 1.1 180.5 46.7 58.7 50.3 41 158.3 35.4 192.9-17.8 108.7-95.7 245.8-194.3 253.6-75.3 6-91.9-69-194.6-71.8-78.2-2.1-94.3 40.6-170.8 31.8-55.1-6.3-132.4-38.1-149.6-95.3z" fill="#695ADA" p-id="5067"></path><path d="M168.6 729.3c-18-59.8 47.7-89.5 38.6-170.7-8.1-71.5-60.4-80.5-63.4-141.5-4.7-96.1 121.8-171 136.7-179.8 85.6-50.8 226.6-81.1 299-17 53.8 47.6 23.6 106.3 82.5 151.1 63.7 48.4 127.1 1.1 180.5 46.7 58.7 50.3 41 158.3 35.4 192.9-17.8 108.7-95.7 245.8-194.3 253.6-75.3 6-91.9-69-194.6-71.8-78.2-2.1-94.3 40.6-170.8 31.8-55-6.4-132.4-38.2-149.6-95.3z" fill="#5F56DA" p-id="5068"></path><path d="M182.6 655.8c-2.9 5.5-5.6 11-8.1 16.4 2.7-5.3 5.5-10.7 8.1-16.4zM842.3 418c-53.3-45.7-116.8 1.7-180.5-46.7-58.8-44.8-28.7-103.5-82.5-151.1-72.4-64.1-213.4-33.8-299 17-12.2 7.2-99.4 59-127.8 130.4 35.5-59 105.2-100.3 116-106.7 85.6-50.8 226.6-81.1 299-17 53.8 47.6 23.6 106.3 82.5 151.1 63.7 48.4 127.1 1.1 180.5 46.7 58.7 50.2 41 158.3 35.4 192.9-5.5 33.7-16.8 70-32.7 104.4 22.1-41 37.7-86.6 44.5-128.1 5.7-34.6 23.3-142.7-35.4-192.9z" fill="#695ADA" p-id="5069"></path><path d="M587.5 301.6c5.7 6.5 5.1 16.4-1.4 22.2-6.5 5.7-16.4 5.1-22.2-1.4s-5.1-16.4 1.4-22.2a15.7 15.7 0 0 1 22.2 1.4z m-17.2 15.1c2.6 3 7.1 3.3 10.1 0.7 3-2.6 3.3-7.1 0.7-10.1-2.6-3-7.1-3.3-10.1-0.7-3 2.6-3.3 7.1-0.7 10.1zM675.5 846.6c5.7 6.5 5.1 16.4-1.4 22.2-6.5 5.7-16.4 5.1-22.2-1.4-5.7-6.5-5.1-16.4 1.4-22.2a15.7 15.7 0 0 1 22.2 1.4z m-17.2 15.1c2.6 3 7.1 3.3 10.1 0.7 3-2.6 3.3-7.1 0.7-10.1-2.6-3-7.1-3.3-10.1-0.7-3 2.6-3.3 7.1-0.7 10.1zM482.5 195.6c5.7 6.5 5.1 16.4-1.4 22.2-6.5 5.7-16.4 5.1-22.2-1.4-5.7-6.5-5.1-16.4 1.4-22.2a15.7 15.7 0 0 1 22.2 1.4z m-17.2 15.1c2.6 3 7.1 3.3 10.1 0.7 3-2.6 3.3-7.1 0.7-10.1s-7.1-3.3-10.1-0.7c-3 2.6-3.3 7.1-0.7 10.1zM308.9 275.7c0.9 1 0.8 2.5-0.2 3.3l-11.3 9.9c-1 0.9-2.5 0.8-3.3-0.2-0.9-1-0.8-2.5 0.2-3.3l11.3-9.9c1-0.9 2.5-0.8 3.3 0.2zM337.6 250.5c0.9 1 0.8 2.5-0.2 3.3l-11.3 9.9c-1 0.9-2.5 0.8-3.3-0.2-0.9-1-0.8-2.5 0.2-3.3l11.3-9.9c1-0.8 2.5-0.7 3.3 0.2zM300.1 248.1l9.9 11.3c0.9 1 0.8 2.5-0.2 3.3-1 0.9-2.5 0.8-3.3-0.2l-9.9-11.3c-0.9-1-0.8-2.5 0.2-3.3 0.9-0.9 2.4-0.8 3.3 0.2zM325.3 276.8l9.9 11.3c0.9 1 0.8 2.5-0.2 3.3-1 0.9-2.5 0.8-3.3-0.2l-9.9-11.3c-0.9-1-0.8-2.5 0.2-3.3 0.9-0.9 2.4-0.8 3.3 0.2z" fill="#FFFFFF" p-id="5070"></path><path d="M126.2 353H869v419.8H126.2z" fill="#313145" p-id="5071"></path><path d="M126.2 353H869v25.9H126.2z" fill="#F4F4F4" p-id="5072"></path><path d="M142.2 366.1m-4.9 0a4.9 4.9 0 1 0 9.8 0 4.9 4.9 0 1 0-9.8 0Z" fill="#F93E3E" p-id="5073"></path><path d="M158.3 366.1m-4.9 0a4.9 4.9 0 1 0 9.8 0 4.9 4.9 0 1 0-9.8 0Z" fill="#F4D225" p-id="5074"></path><path d="M173.7 365.6m-4.9 0a4.9 4.9 0 1 0 9.8 0 4.9 4.9 0 1 0-9.8 0Z" fill="#6BDDAC" p-id="5075"></path><path d="M130.9 417.9H192v346.7h-61.1z" fill="#34344C" p-id="5076"></path><path d="M203.1 417.9h534.5v346.7H203.1z" fill="#FFFFFF" p-id="5077"></path><path d="M130.9 382h610.9v30.1H130.9z m617 3.4h110.3v86.9H747.9z m0 93.4h110.3v285.8H747.9z" fill="#34344C" p-id="5078"></path><path d="M752.4 483.2h100v43.6h-100z" fill="#8557DA" p-id="5079"></path><path d="M752.4 532.3h100v43.6h-100z" fill="#4082FC" p-id="5080"></path><path d="M752.4 581.3h100v43.6h-100z" fill="#FCA360" p-id="5081"></path><path d="M156.2 444h-16.9a2 2 0 0 1-2-2v-16.9c0-1.1 0.9-2 2-2h16.9a2 2 0 0 1 2 2V442c0.1 1.1-0.8 2-2 2z m247.6-52.4H140.2c-1.5 0-2.6-1.2-2.6-2.6 0-1.5 1.2-2.6 2.6-2.6h263.6c1.5 0 2.6 1.2 2.6 2.6 0.1 1.4-1.1 2.6-2.6 2.6z m0 8H140.2c-1.5 0-2.6-1.2-2.6-2.6 0-1.5 1.2-2.6 2.6-2.6h263.6c1.5 0 2.6 1.2 2.6 2.6 0.1 1.4-1.1 2.6-2.6 2.6z m0 8H140.2c-1.5 0-2.6-1.2-2.6-2.6 0-1.5 1.2-2.6 2.6-2.6h263.6c1.5 0 2.6 1.2 2.6 2.6 0.1 1.4-1.1 2.6-2.6 2.6z m325.6-16H421.7c-1.5 0-2.6-1.2-2.6-2.6 0-1.5 1.2-2.6 2.6-2.6h307.8c1.5 0 2.6 1.2 2.6 2.6 0 1.4-1.2 2.6-2.7 2.6z m0 8H421.7c-1.5 0-2.6-1.2-2.6-2.6 0-1.5 1.2-2.6 2.6-2.6h307.8c1.5 0 2.6 1.2 2.6 2.6 0 1.4-1.2 2.6-2.7 2.6z m0 8H421.7c-1.5 0-2.6-1.2-2.6-2.6 0-1.5 1.2-2.6 2.6-2.6h307.8c1.5 0 2.6 1.2 2.6 2.6 0 1.4-1.2 2.6-2.7 2.6z m-566.2 15.5h21v21h-21z m-7 48h-16.9a2 2 0 0 1-2-2v-16.9c0-1.1 0.9-2 2-2h16.9a2 2 0 0 1 2 2v16.9c0.1 1.1-0.8 2-2 2z m25.9 0h-16.9a2 2 0 0 1-2-2v-16.9c0-1.1 0.9-2 2-2h16.9a2 2 0 0 1 2 2v16.9a2 2 0 0 1-2 2z m-25.9 27.2h-16.9a2 2 0 0 1-2-2v-16.9c0-1.1 0.9-2 2-2h16.9a2 2 0 0 1 2 2v16.9c0.1 1.1-0.8 2-2 2z m25.9 0h-16.9a2 2 0 0 1-2-2v-16.9c0-1.1 0.9-2 2-2h16.9a2 2 0 0 1 2 2v16.9a2 2 0 0 1-2 2z m-25.9 27.1h-16.9a2 2 0 0 1-2-2v-16.9c0-1.1 0.9-2 2-2h16.9a2 2 0 0 1 2 2v16.9c0.1 1.1-0.8 2-2 2z m25.9 0h-16.9a2 2 0 0 1-2-2v-16.9c0-1.1 0.9-2 2-2h16.9a2 2 0 0 1 2 2v16.9a2 2 0 0 1-2 2z m-25.9 27.1h-16.9a2 2 0 0 1-2-2v-16.9c0-1.1 0.9-2 2-2h16.9a2 2 0 0 1 2 2v16.9c0.1 1.1-0.8 2-2 2z m25.9 0h-16.9a2 2 0 0 1-2-2v-16.9c0-1.1 0.9-2 2-2h16.9a2 2 0 0 1 2 2v16.9a2 2 0 0 1-2 2z m-25.9 27.1h-16.9a2 2 0 0 1-2-2v-16.9c0-1.1 0.9-2 2-2h16.9a2 2 0 0 1 2 2v16.9c0.1 1.1-0.8 2-2 2z m25.9 0h-16.9a2 2 0 0 1-2-2v-16.9c0-1.1 0.9-2 2-2h16.9a2 2 0 0 1 2 2v16.9a2 2 0 0 1-2 2z m0.3 15.2H139c-0.9 0-1.7-0.8-1.7-1.7v-3.6c0-0.9 0.8-1.7 1.7-1.7h43.4c0.9 0 1.7 0.8 1.7 1.7v3.6c0 0.9-0.7 1.7-1.7 1.7z m0 15.2H139c-0.9 0-1.7-0.8-1.7-1.7v-3.6c0-0.9 0.8-1.7 1.7-1.7h43.4c0.9 0 1.7 0.8 1.7 1.7v3.6c0 0.9-0.7 1.7-1.7 1.7z m0 15.2H139c-0.9 0-1.7-0.8-1.7-1.7v-3.6c0-0.9 0.8-1.7 1.7-1.7h43.4c0.9 0 1.7 0.8 1.7 1.7v3.6c0 0.9-0.7 1.7-1.7 1.7z m0 15.2H139c-0.9 0-1.7-0.8-1.7-1.7v-3.6c0-0.9 0.8-1.7 1.7-1.7h43.4c0.9 0 1.7 0.8 1.7 1.7v3.6c0 0.9-0.7 1.7-1.7 1.7z m0 15.2H139c-0.9 0-1.7-0.8-1.7-1.7v-3.6c0-0.9 0.8-1.7 1.7-1.7h43.4c0.9 0 1.7 0.8 1.7 1.7v3.6c0 0.9-0.7 1.7-1.7 1.7z m0 15.2H139c-0.9 0-1.7-0.8-1.7-1.7v-3.6c0-0.9 0.8-1.7 1.7-1.7h43.4c0.9 0 1.7 0.8 1.7 1.7v3.6c0 0.9-0.7 1.7-1.7 1.7z m0 15.2H139c-0.9 0-1.7-0.8-1.7-1.7v-3.6c0-0.9 0.8-1.7 1.7-1.7h43.4c0.9 0 1.7 0.8 1.7 1.7v3.6c0 0.9-0.7 1.7-1.7 1.7z m0 15.2H139c-0.9 0-1.7-0.8-1.7-1.7v-3.6c0-0.9 0.8-1.7 1.7-1.7h43.4c0.9 0 1.7 0.8 1.7 1.7v3.6c0 0.9-0.7 1.7-1.7 1.7z m0 15.2H139c-0.9 0-1.7-0.8-1.7-1.7v-3.6c0-0.9 0.8-1.7 1.7-1.7h43.4c0.9 0 1.7 0.8 1.7 1.7v3.6c0 0.9-0.7 1.7-1.7 1.7z m0 15.2H139c-0.9 0-1.7-0.8-1.7-1.7v-3.6c0-0.9 0.8-1.7 1.7-1.7h43.4c0.9 0 1.7 0.8 1.7 1.7v3.6c0 0.9-0.7 1.7-1.7 1.7z m601.5-262.3h-34.3v-80.6c0-1.3 1.1-2.3 2.3-2.3h29.6c1.3 0 2.3 1.1 2.3 2.3v80.6z" fill="#2D2D42" p-id="5082"></path><path d="M749.6 395H855v74.3H749.6z" fill="#2D2D42" p-id="5083"></path><path d="M756.9 404h90.6v2.5h-90.6z m0 10.6h90.6v2.5h-90.6z m0 10.5h90.6v2.5h-90.6z m0 10.5h90.6v2.5h-90.6z m0 10.6h90.6v2.5h-90.6z m0 10.5h90.6v2.5h-90.6z" fill="#1C1C28" p-id="5084"></path><path d="M723.3 438.6l-63.1 0.3-63.1 0.1-126.3 0.2-126.2-0.2-63.2-0.1-63.1-0.3 63.1-0.3 63.2-0.1 126.2-0.2 126.3 0.2 63.1 0.1z m0 33.2l-63.1 0.2-63.1 0.1-126.3 0.2-126.2-0.2-63.2-0.1-63.1-0.2 63.1-0.3 63.2-0.1 126.2-0.2 126.3 0.2 63.1 0.1z m0 33.1l-63.1 0.3-63.1 0.1-126.3 0.2-126.2-0.2-63.2-0.1-63.1-0.3 63.1-0.3 63.2-0.1 126.2-0.2 126.3 0.2 63.1 0.1z m0 33.2l-63.1 0.2-63.1 0.1-126.3 0.2-126.2-0.1-63.2-0.2-63.1-0.2 63.1-0.3 63.2-0.1 126.2-0.2 126.3 0.2 63.1 0.1z m0 33.1l-63.1 0.3-63.1 0.1-126.3 0.2-126.2-0.2-63.2-0.1-63.1-0.3 63.1-0.3 63.2-0.1 126.2-0.2 126.3 0.2 63.1 0.1z m0 33.2l-63.1 0.2-63.1 0.2-126.3 0.2-126.2-0.2-63.2-0.1-63.1-0.3 63.1-0.3 63.2-0.1 126.2-0.2 126.3 0.2 63.1 0.1z m0 33.1l-63.1 0.3-63.1 0.1-126.3 0.2-126.2-0.2-63.2-0.1-63.1-0.3 63.1-0.3 63.2-0.1 126.2-0.2 126.3 0.2 63.1 0.1z m0 33.2l-63.1 0.3-63.1 0.1-126.3 0.2-126.2-0.2-63.2-0.1-63.1-0.3 63.1-0.3 63.2-0.1 126.2-0.2 126.3 0.2 63.1 0.1z m0 33.1l-63.1 0.3-63.1 0.1-126.3 0.2-126.2-0.2-63.2-0.1-63.1-0.3 63.1-0.3 63.2-0.1 126.2-0.2 126.3 0.2 63.1 0.1z m0 33.2l-63.1 0.3-63.1 0.1-126.3 0.2-126.2-0.2-63.2-0.1-63.1-0.3 63.1-0.3 63.2-0.1 126.2-0.2 126.3 0.2 63.1 0.1z" fill="#E6E6EF" p-id="5085"></path><path d="M532 753.1l-0.3-41.3-0.2-41.3-0.1-82.7 0.1-82.7 0.2-41.3 0.3-41.3 0.3 41.3 0.1 41.3 0.2 82.7-0.2 82.7-0.1 41.3z m33 0l-0.3-41.3-0.2-41.3-0.1-82.7 0.1-82.7 0.2-41.3 0.3-41.3 0.3 41.3 0.1 41.3 0.2 82.7-0.2 82.7-0.1 41.3z m33 0l-0.3-41.3-0.2-41.3-0.1-82.7 0.1-82.7 0.2-41.3 0.3-41.3 0.2 41.3 0.2 41.3 0.1 82.7-0.1 82.7-0.2 41.3z m32.9 0l-0.3-41.3-0.1-41.3-0.2-82.7 0.2-82.7 0.1-41.3 0.3-41.3 0.3 41.3 0.2 41.3 0.1 82.7-0.1 82.7-0.2 41.3z m33 0l-0.3-41.3-0.1-41.3-0.2-82.7 0.2-82.7 0.1-41.3 0.3-41.3 0.3 41.3 0.2 41.3 0.1 82.7-0.1 82.7-0.2 41.3z m33 0l-0.3-41.3-0.1-41.3-0.2-82.7 0.2-82.7 0.1-41.3 0.3-41.3 0.3 41.3 0.2 41.3 0.1 82.7-0.1 82.7-0.2 41.3z m-198.1 0l-0.3-41.3-0.1-41.3-0.2-82.7 0.2-82.7 0.1-41.3 0.3-41.3 0.3 41.3 0.2 41.3 0.1 82.7-0.1 82.7-0.2 41.3z m-33.1 0l-0.3-41.3-0.2-41.3-0.1-82.7 0.1-82.7 0.2-41.3 0.3-41.3 0.3 41.3 0.1 41.3 0.2 82.7-0.2 82.7-0.1 41.3z m-33.2 0l-0.3-41.3-0.1-41.3-0.2-82.7 0.2-82.7 0.1-41.3 0.3-41.3 0.3 41.3 0.2 41.3 0.1 82.7-0.1 82.7-0.2 41.3z m-33.1 0l-0.3-41.3-0.2-41.3-0.1-82.7 0.1-82.7 0.2-41.3 0.3-41.3 0.3 41.3 0.1 41.3 0.2 82.7-0.2 82.7-0.1 41.3z m-33.2 0l-0.3-41.3-0.1-41.3-0.2-82.7 0.2-82.7 0.1-41.3 0.3-41.3 0.3 41.3 0.2 41.3 0.1 82.7-0.1 82.7-0.2 41.3z m-33.1 0l-0.3-41.3-0.2-41.3-0.1-82.7 0.1-82.7 0.2-41.3 0.3-41.3 0.3 41.3 0.1 41.3 0.2 82.7-0.2 82.7-0.1 41.3z m-33.2 0l-0.3-41.3-0.1-41.3-0.2-82.7 0.2-82.7 0.1-41.3 0.3-41.3 0.3 41.3 0.2 41.3 0.1 82.7-0.1 82.7-0.2 41.3z m-33.1 0l-0.3-41.3-0.2-41.3-0.1-82.7 0.1-82.7 0.2-41.3 0.3-41.3 0.3 41.3 0.1 41.3 0.2 82.7-0.2 82.7-0.2 41.3z m-33.2 0l-0.3-41.3-0.1-41.3-0.2-82.7 0.2-82.7 0.1-41.3 0.3-41.3 0.3 41.3 0.2 41.3 0.1 82.7-0.1 82.7-0.2 41.3z" fill="#E6E6EF" p-id="5086"></path><path d="M416.3 475.5c25.4 0 55.2 37 89.3 111.1 20.4 44.4 30.5 75.5 30.5 93.4 0 12-4.6 17.9-13.9 17.9-22.9 0-37.7-7.4-44.3-22.1-6.6-14.8-27.2-22.1-61.8-22.1-34.6 0-55.4 7.4-62.4 22.1-6.9 14.8-21.4 22.1-43.4 22.1-8.7 0-13.1-5.8-13.1-17.4 0-17.7 10.2-48.9 30.5-93.9 33.7-74.1 63.1-111.1 88.6-111.1z m-16.8 97.9c-12 25.7-6.3 38.5 17 38.5s29.3-12.8 17.9-38.5c-11.3-25.6-23-25.6-34.9 0z m196.7 13.5c0-74.4 10.3-111.6 31-111.6h0.2c20.8 0.1 31.2 34.3 31.3 102.6v0.6c0 68-10.4 104.9-31.2 111-1.6 0.5-3.2 0.8-4.7 0.8-17.7 0-26.6-34.4-26.6-103.4z" fill="#FCA360" p-id="5087"></path><path d="M103.7 440.2c-12.9 7.4-17.9 19-18.8 33.5-2.4 38.4 8.1 74.3 21.5 109.5C125 632 149.3 677.7 184 717.3c2.5 2.9 5.4 5.4 5.7 5.8 24.6-11.7 47.8-22.7 72.8-34.6-6.2-48.1-24.7-95.8-50.1-140.6-13.9-24.5-29.9-48.4-48.3-69.8-12.9-15-31.3-25.4-47.3-37.9-3.8-2.6-10-1.4-13.1 0z" fill="#FD595E" p-id="5088"></path><path d="M547.3 579.4c-12.6-11.5-18-11-28.7 2.2-10.5 12.9-21.7 25.2-31.6 38.5-6.7 9-12.7 18.9-17.1 29.3-9.7 22.9-3.6 41.6 16.7 56 7.2 5.1 14.2 10.5 21.2 15.7-0.5 2.2-0.5 2.4-1 4.6-13.5 2.8-27.2 5.5-40.7 8.5-15.7 3.5-31.4 7.1-47 11.2-4.9 1.3-9.7 4.1-14 7-16.7 11.1-17 26 0.3 36 12 6.9 25.8 10.5 38.1 16.8 11.1 5.7 22.6 11.7 31.8 19.9 11.4 10.4 8.7 21.5-6.4 25.1-17.7 4.1-36.1 5.3-54.2 7.4-4.7 0.5-9.5 0.8-14.3 1-5.4 0.3-8.4 6.5-5.1 10.8 2.8 3.7 5.4 7.3 9.1 12 0 0 0 0.1 0.1 0.1 1.7 2.9 4.8 4.5 8.1 4.1 19.9-2.1 40-3.1 59.2-7.8 11.8-2.9 23.7-11.4 32.2-20.5 13.8-14.7 13.5-34.1-2.2-46.5-17.5-13.7-38.4-23.2-58-34.3-3.6-2-7.6-3.1-11.5-4.7l0.4-4c18-3.3 36-6.3 53.8-10.1 11.4-2.4 23.3-4.5 33.7-9.6 21.9-10.8 23.7-34.9 4.5-50-4.1-3.2-8.7-5.8-13.1-8.7-18.4-12.2-22.9-27.3-10.8-45.8 9.5-14.5 21.8-27.2 32.9-40.6 4.5-5.4 9.1-10.6 13.6-15.9 0.7-0.6 0.7-7.1 0-7.7z" fill="#313145" p-id="5089"></path><path d="M398.6 877.4c-4.5-3.1-8.9-6.5-13.6-9.3-10.5-6.2-21.4-11.8-31.7-18.3-8.6-5.4-15.8-10.2-9-23.7 7.3-14.4-0.6-34.1-13.7-44.4-14.8-11.6-37.7-14.3-51.3-3.9-10.9 8.4-21.2 18.3-29.3 29.4-11.9 16.5-8 32.2 9 43.7 5.7 3.8 12 7.8 18.6 9.2 36.6 7.5 73.3 14.3 109.9 21.1 2.3 0.4 7.5 1 10 0.7 0.2 0 0.3-0.1 0.4-0.1 2.1-0.3 2.6-3.2 0.7-4.4z" fill="#FD595E" p-id="5090"></path><path d="M341.9 837c-0.9-0.6-1.9-1.1-2.8-1.6-8.6-5.4-15.8-10.2-9-23.7 5-9.9 2.9-22.3-3.2-32.4 1.3 0.8 2.6 1.6 3.8 2.5 13.1 10.3 21 29.9 13.7 44.4-2.3 4.5-2.9 7.9-2.5 10.8z m-78.5 8.7c36.6 7.5 73.3 14.3 109.9 21.1 2.3 0.4 7.5 1 10 0.7 0.2 0 0.3-0.1 0.4-0.1 0 0 0.1 0 0.1-0.1 0.4 0.3 0.9 0.5 1.3 0.8 4.7 2.8 9.1 6.2 13.6 9.3 1.8 1.2 1.4 4-0.7 4.5-0.2 0-0.3 0.1-0.4 0.1-2.4 0.4-7.7-0.3-10-0.7-36.6-6.8-73.3-13.6-109.9-21.1-6.5-1.3-12.9-5.3-18.6-9.2-6-4.1-10.4-8.7-13-13.7 5.3 3.7 11.2 7.2 17.3 8.4z m-51.5-68.3c26.3-12.9 51.5-25.3 78.2-38.4 3.9 15.8-0.2 24.5-10.6 29.8-12.3 6.3-25.1 11.9-37.6 18-11 5.2-20 2.5-30-9.4z m-10.8-23.6c26.6-12.7 51.7-24.8 77.8-37.4 3.1 7.3 5.1 11.8 6.4 14.9a48804 48804 0 0 1-76.8 37.9c-1.8-3.7-3.8-8-7.4-15.4z m73.1-44.8c-25.9 12.5-50.7 24.4-76 36.6-3-12 1.1-20.2 11.4-25.3 12.5-6.2 25.1-12.1 37.8-17.9 10.3-4.8 19.4-2.9 26.8 6.6z" fill="#FD595E" p-id="5091"></path></svg>